<mxfile host="app.diagrams.net" modified="2024-02-04T22:42:06.498Z" agent="Mozilla/5.0 (Macintosh; Intel Mac OS X 10_15_7) AppleWebKit/537.36 (KHTML, like Gecko) Chrome/121.0.0.0 Safari/537.36" version="23.1.1" etag="d4vWepMzVcB3XwVlSZdm" type="github">
  <diagram name="Page-1" id="EzwIQb6qGNLlWlf6WvK1">
    <mxGraphModel>
      <root>
        <mxCell id="0" />
        <mxCell id="1" parent="0" />
      </root>
    </mxGraphModel>
  </diagram>
</mxfile>
